Coordinates
version=1
nRows=15
nColumns=42
inDegrees=yes

Units are S.I. units (second, meters, Newtons, ...)
If the header above contains a line with 'inDegrees', this indicates whether rotational values are in degrees (yes) or radians (no).

endheader
time	pelvis_tilt	pelvis_list	pelvis_rotation	pelvis_tx	pelvis_ty	pelvis_tz	hip_flexion_r	hip_adduction_r	hip_rotation_r	knee_angle_r	knee_adduction_r	knee_angle_r_beta	ankle_angle_r	subtalar_angle_r	mtp_angle_r	hip_flexion_l	hip_adduction_l	hip_rotation_l	knee_angle_l	knee_adduction_l	knee_angle_l_beta	ankle_angle_l	subtalar_angle_l	mtp_angle_l	lumbar_extension	lumbar_bending	lumbar_rotation	arm_flex_r	arm_add_r	arm_rot_r	elbow_flex_r	pro_sup_r	wrist_flex_r	wrist_dev_r	arm_flex_l	arm_add_l	arm_rot_l	elbow_flex_l	pro_sup_l	wrist_flex_l	wrist_dev_l
      0.60000000	     14.84599929	      0.61801934	      7.01503022	     -0.47355973	      0.95693585	     -0.14160665	      9.52237065	      0.77985829	    -11.42655176	     28.76737658	      0.59202438	      0.50208544	      1.73461053	     -5.11533196	     -8.24906319	    -25.14210962	     -4.28167563	     -3.40933183	     42.14585320	     -0.22401398	      0.73558390	     -6.43214952	     13.51777711	     -8.24906319	    -31.16558361	      7.10425765	      3.87813251	     -9.01224163	    -20.06455286	    -13.94167732	     63.93983075	     90.00000001	      0.00000000	      0.00000000	      4.86057684	    -21.05223427	      7.11274506	     71.99326485	     90.00000001	      0.00000000	      0.00000000
      0.61000000	     14.65066137	      0.25808738	      6.86369087	     -0.45909729	      0.95834494	     -0.14021267	      8.98880850	      1.43766763	    -11.94448722	     29.02867635	      0.14297501	      0.50664598	      2.90821985	     -4.08188338	     -8.21646249	    -23.12071041	     -4.61312084	     -2.48563997	     46.03363810	     -0.02866171	      0.80343855	     -7.49328804	     10.80644311	     -8.21646249	    -31.01377459	      7.41447138	      4.36278149	     -8.66058208	    -20.22535254	    -13.72879341	     63.84263430	     90.00000001	      0.00000000	      0.00000000	      4.14894161	    -20.77513228	      6.70816865	     71.56108995	     90.00000001	      0.00000000	      0.00000000
      0.62000000	     14.66612404	     -0.03716409	      6.79407386	     -0.44482969	      0.96023729	     -0.13896673	      7.96922847	      1.99639190	    -12.27243422	     28.84048017	     -0.01362420	      0.50336134	      4.18059632	     -3.28566970	     -8.19807428	    -21.26493245	     -4.85295227	     -1.96221700	     49.64232663	     -0.30062341	      0.86642205	     -8.05369676	      9.33740627	     -8.19807428	    -31.10288018	      7.69556616	      4.79625495	     -8.35502103	    -20.35418995	    -13.57650424	     63.97154660	     90.00000001	      0.00000000	      0.00000000	      3.54697802	    -20.56402725	      6.52289485	     71.11745323	     90.00000001	      0.00000000	      0.00000000
      0.63000000	     14.64012459	     -0.27800691	      6.69630718	     -0.43080859	      0.96223091	     -0.13772591	      6.91736220	      2.46607475	    -12.60936109	     28.48286260	     -0.13596869	      0.49711973	      5.26860463	     -2.39220049	     -8.18272790	    -19.33448660	     -4.99063546	     -1.59831915	     52.98482894	     -0.65520049	      0.92475972	     -7.99450944	      7.98842392	     -8.18272790	    -31.17261815	      7.89927549	      5.19102716	     -8.00015758	    -20.48580288	    -13.38304023	     64.14443750	     90.00000001	      0.00000000	      0.00000000	      2.98307393	    -20.38518062	      6.37807698	     70.55020672	     90.00000001	      0.00000000	      0.00000000
      0.64000000	     14.52836115	     -0.53476444	      6.53351406	     -0.41701194	      0.96417633	     -0.13625522	      5.96945197	      2.98621597	    -13.03076849	     28.07306377	     -0.41248692	      0.48996739	      6.19758469	     -1.27902492	     -8.16600651	    -17.28740839	     -5.15061734	     -1.32343846	     56.03279345	     -0.89815040	      0.97795673	     -7.49724744	      6.60961755	     -8.16600651	    -31.17101747	      8.03880159	      5.64969660	     -7.65197355	    -20.63220749	    -13.11395187	     64.28535969	     90.00000001	      0.00000000	      0.00000000	      2.48469106	    -20.20282991	      6.22396749	     69.91034341	     90.00000001	      0.00000000	      0.00000000
      0.65000000	     14.55851717	     -0.60164174	      6.35031069	     -0.40343051	      0.96658044	     -0.13481477	      4.75863034	      3.27311051	    -13.19667158	     27.50088070	     -0.48417100	      0.47998092	      6.97527387	     -0.38415084	     -8.15203414	    -15.43512592	     -5.08589994	     -1.22960386	     58.55799776	     -1.29237213	      1.02202986	     -6.74644537	      5.61809661	     -8.15203414	    -31.36895897	      7.97477950	      6.02455951	     -7.26778765	    -20.74803402	    -12.86205078	     64.51439833	     90.00000001	      0.00000000	      0.00000000	      2.05629750	    -20.07600330	      6.15020620	     69.21871380	     90.00000001	      0.00000000	      0.00000000
      0.66000000	     14.70733200	     -0.48856888	      6.05402796	     -0.38999618	      0.96927925	     -0.13329710	      3.39900956	      3.38175909	    -13.12919830	     26.92507180	     -0.54132106	      0.46993115	      7.47799402	      0.15103830	     -8.14263606	    -13.79614527	     -4.80446884	     -1.29388379	     60.51349144	     -1.67852290	      1.05615967	     -5.98828855	      5.04116876	     -8.14263606	    -31.71696188	      7.67769664	      6.39323589	     -6.84430649	    -20.83780603	    -12.65524890	     64.78646394	     90.00000001	      0.00000000	      0.00000000	      1.67790845	    -20.01676348	      6.11782994	     68.55565236	     90.00000001	      0.00000000	      0.00000000
      0.67000000	     14.70263052	     -0.58008120	      5.92082549	     -0.37661227	      0.97175043	     -0.13198255	      2.05335953	      3.66561325	    -12.88485174	     25.97094070	     -0.35785725	      0.45327843	      8.11761775	      0.83593191	     -8.13192303	    -11.91192903	     -4.75004220	     -1.51016453	     62.20424256	     -2.25363652	      1.08566884	     -4.70664746	      4.18461357	     -8.13192303	    -31.83845811	      7.64725906	      6.66441653	     -6.47310380	    -20.99608698	    -12.32427003	     65.14540927	     90.00000001	      0.00000000	      0.00000000	      1.29883265	    -19.89614517	      6.11205156	     67.66930706	     90.00000001	      0.00000000	      0.00000000
      0.68000000	     14.71560700	     -0.81026340	      5.62898158	     -0.36335347	      0.97419929	     -0.13014132	      0.73250632	      4.19399989	    -12.54052293	     24.97224532	     -0.34595511	      0.43584790	      8.44261660	      1.41206431	     -8.10922204	    -10.08978644	     -4.95483012	     -1.84411501	     63.46448173	     -2.50140836	      1.10766416	     -3.42453791	      3.67021874	     -8.10922204	    -32.00780171	      7.63107091	      7.15376409	     -6.13129596	    -21.19259143	    -11.88573178	     65.53513167	     90.00000001	      0.00000000	      0.00000000	      0.95995133	    -19.77152739	      6.05626025	     66.79873663	     90.00000001	      0.00000000	      0.00000000
      0.69000000	     14.72205299	     -0.65755943	      5.35721863	     -0.35034390	      0.97674939	     -0.12870398	     -0.61740213	      4.21506440	    -12.16759340	     24.01178784	     -0.21666123	      0.41908476	      8.79413878	      1.74855371	     -8.09899656	     -8.33564730	     -4.59698141	     -2.15615933	     64.14821200	     -2.93668972	      1.11959751	     -2.22943383	      3.26797693	     -8.09899656	    -32.20495176	      7.27117576	      7.37405743	     -5.72808397	    -21.28857973	    -11.59149870	     65.96465550	     90.00000001	      0.00000000	      0.00000000	      0.64121359	    -19.72723706	      6.08628098	     65.92191968	     90.00000001	      0.00000000	      0.00000000
      0.70000000	     14.87693652	     -0.76586823	      4.91712395	     -0.33721414	      0.97934030	     -0.12668665	     -2.23004453	      4.63379051	    -11.46428203	     22.71436881	     -0.14465196	      0.39644052	      8.87459331	      1.93429857	     -8.07798333	     -6.82639599	     -4.63756303	     -2.85433447	     64.40483970	     -3.32699120	      1.12407651	     -0.90304265	      3.31735525	     -8.07798333	    -32.53765418	      7.04894040	      7.87050620	     -5.42057162	    -21.50898042	    -11.11578409	     66.48866019	     90.00000001	      0.00000000	      0.00000000	      0.34800482	    -19.67716643	      6.04908435	     64.97458129	     90.00000001	      0.00000000	      0.00000000
      0.71000000	     14.73503067	     -0.53891676	      4.56030944	     -0.32460270	      0.98142081	     -0.12504832	     -3.32759062	      4.60544767	    -11.32926827	     21.84062980	     -0.29326766	      0.38119090	      9.08706480	      2.14829404	     -8.07050170	     -4.96495804	     -4.18701078	     -3.13154169	     64.36131396	     -3.54052655	      1.12331684	      0.01722343	      3.12099804	     -8.07050170	    -32.61287188	      6.53661888	      8.02904837	     -4.98393368	    -21.50694746	    -10.85223130	     67.00338813	     90.00000001	      0.00000000	      0.00000000	      0.00462908	    -19.70189020	      6.08318818	     64.21085386	     90.00000001	      0.00000000	      0.00000000
      0.72000000	     14.77609046	     -0.59754165	      4.19403374	     -0.31178833	      0.98361645	     -0.12356410	     -4.87325103	      4.85072172	    -10.69644293	     20.41865995	     -0.12940828	      0.35637285	      9.25876375	      2.75913077	     -8.05782699	     -3.40653818	     -4.06085633	     -3.68385143	     63.88415658	     -3.91571798	      1.11498887	      1.51469057	      2.98827292	     -8.05782699	    -32.81418716	      6.35751209	      8.37319737	     -4.64700956	    -21.82168851	    -10.31522713	     67.55245722	     90.00000001	      0.00000000	      0.00000000	     -0.19586617	    -19.51783536	      6.07670749	     63.02848402	     90.00000001	      0.00000000	      0.00000000
      0.73000000	     14.98967955	     -0.56750023	      3.70698499	     -0.29883369	      0.98590079	     -0.12170407	     -6.65668983	      5.11374988	    -10.13278934	     18.85353874	     -0.26963879	      0.32905633	      9.11041557	      3.02712483	     -8.02927128	     -2.17225612	     -3.87115524	     -4.41730575	     62.93123124	     -4.30676597	      1.09835719	      2.63564244	      3.58742765	     -8.02927128	    -33.21291644	      5.98904398	      8.71778433	     -4.32827036	    -22.00128738	     -9.85410241	     68.23788036	     90.00000001	      0.00000000	      0.00000000	     -0.56277781	    -19.50182217	      6.05384966	     62.22577620	     90.00000001	      0.00000000	      0.00000000
      0.74000000	     14.88125838	     -0.54510873	      3.31158797	     -0.28619701	      0.98745137	     -0.12013427	     -7.95446612	      5.28351287	     -9.87232793	     17.57451187	     -0.39002543	      0.30673310	      9.27822227	      3.65127357	     -8.01570031	     -0.57205778	     -3.69700777	     -4.56472176	     61.84126581	     -4.12034489	      1.07933370	      3.66287995	      3.33405187	     -8.01570031	    -33.25655167	      5.69437047	      8.94508541	     -3.98259524	    -22.19770589	     -9.35634623	     68.83568447	     90.00000001	      0.00000000	      0.00000000	     -0.83127432	    -19.38178256	      6.02879769	     61.18947656	     90.00000001	      0.00000000	      0.00000000
